# xmcd
#
# Track frame offsets:
#	150
#	11090
#	32287
#	46907
#	71757
#	104567
#	120005
#	147727
#	178912
#	199405
#	221280
#	235280
#	256587
#	270612
#	301220
#	315140
#
# Disc length: 4472 seconds
#
# Revision: 0
# Processed by: cddbd v1.5.2PL0 Copyright (c) Steve Scherf et al.
# Submitted via: audiograbber 1.83.01
#
DISCID=d9117610
DTITLE=Abi Wallenstein - Two Times 2
DYEAR=1993
DGENRE=Blues
TTITLE0=Abi Wallenstein and Steve Baker - See Me In The Evening
TTITLE1=Abi Wallenstein and Steve Baker - Take My Woman
TTITLE2=Abi Wallenstein and Steve Baker - Palace Of The King
TTITLE3=Abi Wallenstein and Steve Baker - Alabama
TTITLE4=Abi Wallenstein and Steve Baker - Rockin' Shoes
TTITLE5=Abi Wallenstein and Steve Baker - The Thrill Is Gone
TTITLE6=Abi Wallenstein and Steve Baker - Sunnyland Blow
TTITLE7=Abi Wallenstein and Steve Baker - Can't Be Satisfied
TTITLE8=Abi Wallenstein and Henry Heggen - Boogie 'round The World
TTITLE9=Abi Wallenstein and Henry Heggen - Killin' Floor
TTITLE10=Abi Wallenstein and Henry Heggen - Silver City
TTITLE11=Abi Wallenstein and Henry Heggen - Dust My Broom
TTITLE12=Abi Wallenstein and Henry Heggen - Easy Rider
TTITLE13=Abi Wallenstein and Henry Heggen - Hip Shake
TTITLE14=Abi Wallenstein and Henry Heggen - I'm Movin' On
TTITLE15=Abi Wallenstein - Bye Bye Baby
EXTD=
EXTT0=
EXTT1=
EXTT2=
EXTT3=
EXTT4=
EXTT5=
EXTT6=
EXTT7=
EXTT8=
EXTT9=
EXTT10=
EXTT11=
EXTT12=
EXTT13=
EXTT14=
EXTT15=
PLAYORDER=
